<svg xmlns="http://www.w3.org/2000/svg" width="900" height="190" viewBox="0 0 900 190" role="img" aria-label="Chethan Nayak — Swift and SwiftUI open source">
  <defs>
    <linearGradient id="grid" x1="0" y1="0" x2="1" y2="0">
      <stop offset="0%"   stop-color="#5E5CE6"/>
      <stop offset="45%"  stop-color="#2F9BE3"/>
      <stop offset="100%" stop-color="#32D74B"/>
    </linearGradient>
    <linearGradient id="ink" x1="0" y1="0" x2="1" y2="0">
      <stop offset="0%"  stop-color="#5E5CE6"/>
      <stop offset="70%" stop-color="#2F9BE3"/>
    </linearGradient>
  </defs>
  <style>
    .name { font: 700 41px -apple-system, BlinkMacSystemFont, "Segoe UI", Helvetica, Arial, sans-serif; fill: url(#ink); }
    .tag  { font: 400 16.5px -apple-system, BlinkMacSystemFont, "Segoe UI", Helvetica, Arial, sans-serif; fill: #8B949E; letter-spacing: .2px; }
    .m    { fill: url(#grid); opacity: .42; animation: pulse 2.6s ease-in-out infinite; }
    @keyframes pulse {
      0%, 100% { opacity: .42; }
      45%      { opacity: 1; }
    }
    @media (prefers-reduced-motion: reduce) { .m { animation: none; opacity: .55; } }
    .d0{animation-delay:0.00s}.d1{animation-delay:0.11s}.d2{animation-delay:0.22s}.d3{animation-delay:0.33s}.d4{animation-delay:0.43s}.d5{animation-delay:0.54s}.d6{animation-delay:0.65s}.d7{animation-delay:0.76s}.d8{animation-delay:0.87s}.d9{animation-delay:0.98s}.d10{animation-delay:1.08s}.d11{animation-delay:1.19s}.d12{animation-delay:1.30s}.d13{animation-delay:1.41s}.d14{animation-delay:1.52s}.d15{animation-delay:1.62s}.d16{animation-delay:1.73s}.d17{animation-delay:1.84s}.d18{animation-delay:1.95s}.d19{animation-delay:2.06s}.d20{animation-delay:2.17s}.d21{animation-delay:2.27s}.d22{animation-delay:2.38s}.d23{animation-delay:2.49s}
  </style>
  <text class="name" x="30" y="56">Chethan Nayak</text>
  <text class="tag"  x="32" y="84">Swift &amp; SwiftUI · building small, well-documented open-source packages</text>
  <rect class="m d0" x="30" y="104" width="8" height="8" rx="2.2" /><rect class="m d1" x="47" y="104" width="8" height="8" rx="2.2" /><rect class="m d2" x="64" y="104" width="8" height="8" rx="2.2" /><rect class="m d3" x="81" y="104" width="8" height="8" rx="2.2" /><rect class="m d4" x="98" y="104" width="8" height="8" rx="2.2" /><rect class="m d5" x="115" y="104" width="8" height="8" rx="2.2" /><rect class="m d6" x="132" y="104" width="8" height="8" rx="2.2" /><rect class="m d7" x="149" y="104" width="8" height="8" rx="2.2" /><rect class="m d8" x="166" y="104" width="8" height="8" rx="2.2" /><rect class="m d9" x="183" y="104" width="8" height="8" rx="2.2" /><rect class="m d10" x="200" y="104" width="8" height="8" rx="2.2" /><rect class="m d11" x="217" y="104" width="8" height="8" rx="2.2" /><rect class="m d12" x="234" y="104" width="8" height="8" rx="2.2" /><rect class="m d13" x="251" y="104" width="8" height="8" rx="2.2" /><rect class="m d14" x="268" y="104" width="8" height="8" rx="2.2" /><rect class="m d15" x="285" y="104" width="8" height="8" rx="2.2" /><rect class="m d16" x="302" y="104" width="8" height="8" rx="2.2" /><rect class="m d17" x="319" y="104" width="8" height="8" rx="2.2" /><rect class="m d18" x="336" y="104" width="8" height="8" rx="2.2" /><rect class="m d19" x="353" y="104" width="8" height="8" rx="2.2" /><rect class="m d20" x="370" y="104" width="8" height="8" rx="2.2" /><rect class="m d21" x="387" y="104" width="8" height="8" rx="2.2" /><rect class="m d22" x="404" y="104" width="8" height="8" rx="2.2" /><rect class="m d23" x="421" y="104" width="8" height="8" rx="2.2" /><rect class="m d0" x="438" y="104" width="8" height="8" rx="2.2" /><rect class="m d1" x="455" y="104" width="8" height="8" rx="2.2" /><rect class="m d2" x="472" y="104" width="8" height="8" rx="2.2" /><rect class="m d3" x="489" y="104" width="8" height="8" rx="2.2" /><rect class="m d4" x="506" y="104" width="8" height="8" rx="2.2" /><rect class="m d5" x="523" y="104" width="8" height="8" rx="2.2" /><rect class="m d6" x="540" y="104" width="8" height="8" rx="2.2" /><rect class="m d7" x="557" y="104" width="8" height="8" rx="2.2" /><rect class="m d8" x="574" y="104" width="8" height="8" rx="2.2" /><rect class="m d9" x="591" y="104" width="8" height="8" rx="2.2" /><rect class="m d10" x="608" y="104" width="8" height="8" rx="2.2" /><rect class="m d11" x="625" y="104" width="8" height="8" rx="2.2" /><rect class="m d12" x="642" y="104" width="8" height="8" rx="2.2" /><rect class="m d13" x="659" y="104" width="8" height="8" rx="2.2" /><rect class="m d14" x="676" y="104" width="8" height="8" rx="2.2" /><rect class="m d15" x="693" y="104" width="8" height="8" rx="2.2" /><rect class="m d16" x="710" y="104" width="8" height="8" rx="2.2" /><rect class="m d17" x="727" y="104" width="8" height="8" rx="2.2" /><rect class="m d18" x="744" y="104" width="8" height="8" rx="2.2" /><rect class="m d19" x="761" y="104" width="8" height="8" rx="2.2" /><rect class="m d20" x="778" y="104" width="8" height="8" rx="2.2" /><rect class="m d21" x="795" y="104" width="8" height="8" rx="2.2" /><rect class="m d22" x="812" y="104" width="8" height="8" rx="2.2" /><rect class="m d23" x="829" y="104" width="8" height="8" rx="2.2" /><rect class="m d0" x="846" y="104" width="8" height="8" rx="2.2" /><rect class="m d3" x="30" y="120" width="8" height="8" rx="2.2" /><rect class="m d4" x="47" y="120" width="8" height="8" rx="2.2" /><rect class="m d5" x="64" y="120" width="8" height="8" rx="2.2" /><rect class="m d6" x="81" y="120" width="8" height="8" rx="2.2" /><rect class="m d7" x="98" y="120" width="8" height="8" rx="2.2" /><rect class="m d8" x="115" y="120" width="8" height="8" rx="2.2" /><rect class="m d9" x="132" y="120" width="8" height="8" rx="2.2" /><rect class="m d10" x="149" y="120" width="8" height="8" rx="2.2" /><rect class="m d11" x="166" y="120" width="8" height="8" rx="2.2" /><rect class="m d12" x="183" y="120" width="8" height="8" rx="2.2" /><rect class="m d13" x="200" y="120" width="8" height="8" rx="2.2" /><rect class="m d14" x="217" y="120" width="8" height="8" rx="2.2" /><rect class="m d15" x="234" y="120" width="8" height="8" rx="2.2" /><rect class="m d16" x="251" y="120" width="8" height="8" rx="2.2" /><rect class="m d17" x="268" y="120" width="8" height="8" rx="2.2" /><rect class="m d18" x="285" y="120" width="8" height="8" rx="2.2" /><rect class="m d19" x="302" y="120" width="8" height="8" rx="2.2" /><rect class="m d20" x="319" y="120" width="8" height="8" rx="2.2" /><rect class="m d21" x="336" y="120" width="8" height="8" rx="2.2" /><rect class="m d22" x="353" y="120" width="8" height="8" rx="2.2" /><rect class="m d23" x="370" y="120" width="8" height="8" rx="2.2" /><rect class="m d0" x="387" y="120" width="8" height="8" rx="2.2" /><rect class="m d1" x="404" y="120" width="8" height="8" rx="2.2" /><rect class="m d2" x="421" y="120" width="8" height="8" rx="2.2" /><rect class="m d3" x="438" y="120" width="8" height="8" rx="2.2" /><rect class="m d4" x="455" y="120" width="8" height="8" rx="2.2" /><rect class="m d5" x="472" y="120" width="8" height="8" rx="2.2" /><rect class="m d6" x="489" y="120" width="8" height="8" rx="2.2" /><rect class="m d7" x="506" y="120" width="8" height="8" rx="2.2" /><rect class="m d8" x="523" y="120" width="8" height="8" rx="2.2" /><rect class="m d9" x="540" y="120" width="8" height="8" rx="2.2" /><rect class="m d10" x="557" y="120" width="8" height="8" rx="2.2" /><rect class="m d11" x="574" y="120" width="8" height="8" rx="2.2" /><rect class="m d12" x="591" y="120" width="8" height="8" rx="2.2" /><rect class="m d13" x="608" y="120" width="8" height="8" rx="2.2" /><rect class="m d14" x="625" y="120" width="8" height="8" rx="2.2" /><rect class="m d15" x="642" y="120" width="8" height="8" rx="2.2" /><rect class="m d16" x="659" y="120" width="8" height="8" rx="2.2" /><rect class="m d17" x="676" y="120" width="8" height="8" rx="2.2" /><rect class="m d18" x="693" y="120" width="8" height="8" rx="2.2" /><rect class="m d19" x="710" y="120" width="8" height="8" rx="2.2" /><rect class="m d20" x="727" y="120" width="8" height="8" rx="2.2" /><rect class="m d21" x="744" y="120" width="8" height="8" rx="2.2" /><rect class="m d22" x="761" y="120" width="8" height="8" rx="2.2" /><rect class="m d23" x="778" y="120" width="8" height="8" rx="2.2" /><rect class="m d0" x="795" y="120" width="8" height="8" rx="2.2" /><rect class="m d1" x="812" y="120" width="8" height="8" rx="2.2" /><rect class="m d2" x="829" y="120" width="8" height="8" rx="2.2" /><rect class="m d3" x="846" y="120" width="8" height="8" rx="2.2" /><rect class="m d6" x="30" y="136" width="8" height="8" rx="2.2" /><rect class="m d7" x="47" y="136" width="8" height="8" rx="2.2" /><rect class="m d8" x="64" y="136" width="8" height="8" rx="2.2" /><rect class="m d9" x="81" y="136" width="8" height="8" rx="2.2" /><rect class="m d10" x="98" y="136" width="8" height="8" rx="2.2" /><rect class="m d11" x="115" y="136" width="8" height="8" rx="2.2" /><rect class="m d12" x="132" y="136" width="8" height="8" rx="2.2" /><rect class="m d13" x="149" y="136" width="8" height="8" rx="2.2" /><rect class="m d14" x="166" y="136" width="8" height="8" rx="2.2" /><rect class="m d15" x="183" y="136" width="8" height="8" rx="2.2" /><rect class="m d16" x="200" y="136" width="8" height="8" rx="2.2" /><rect class="m d17" x="217" y="136" width="8" height="8" rx="2.2" /><rect class="m d18" x="234" y="136" width="8" height="8" rx="2.2" /><rect class="m d19" x="251" y="136" width="8" height="8" rx="2.2" /><rect class="m d20" x="268" y="136" width="8" height="8" rx="2.2" /><rect class="m d21" x="285" y="136" width="8" height="8" rx="2.2" /><rect class="m d22" x="302" y="136" width="8" height="8" rx="2.2" /><rect class="m d23" x="319" y="136" width="8" height="8" rx="2.2" /><rect class="m d0" x="336" y="136" width="8" height="8" rx="2.2" /><rect class="m d1" x="353" y="136" width="8" height="8" rx="2.2" /><rect class="m d2" x="370" y="136" width="8" height="8" rx="2.2" /><rect class="m d3" x="387" y="136" width="8" height="8" rx="2.2" /><rect class="m d4" x="404" y="136" width="8" height="8" rx="2.2" /><rect class="m d5" x="421" y="136" width="8" height="8" rx="2.2" /><rect class="m d6" x="438" y="136" width="8" height="8" rx="2.2" /><rect class="m d7" x="455" y="136" width="8" height="8" rx="2.2" /><rect class="m d8" x="472" y="136" width="8" height="8" rx="2.2" /><rect class="m d9" x="489" y="136" width="8" height="8" rx="2.2" /><rect class="m d10" x="506" y="136" width="8" height="8" rx="2.2" /><rect class="m d11" x="523" y="136" width="8" height="8" rx="2.2" /><rect class="m d12" x="540" y="136" width="8" height="8" rx="2.2" /><rect class="m d13" x="557" y="136" width="8" height="8" rx="2.2" /><rect class="m d14" x="574" y="136" width="8" height="8" rx="2.2" /><rect class="m d15" x="591" y="136" width="8" height="8" rx="2.2" /><rect class="m d16" x="608" y="136" width="8" height="8" rx="2.2" /><rect class="m d17" x="625" y="136" width="8" height="8" rx="2.2" /><rect class="m d18" x="642" y="136" width="8" height="8" rx="2.2" /><rect class="m d19" x="659" y="136" width="8" height="8" rx="2.2" /><rect class="m d20" x="676" y="136" width="8" height="8" rx="2.2" /><rect class="m d21" x="693" y="136" width="8" height="8" rx="2.2" /><rect class="m d22" x="710" y="136" width="8" height="8" rx="2.2" /><rect class="m d23" x="727" y="136" width="8" height="8" rx="2.2" /><rect class="m d0" x="744" y="136" width="8" height="8" rx="2.2" /><rect class="m d1" x="761" y="136" width="8" height="8" rx="2.2" /><rect class="m d2" x="778" y="136" width="8" height="8" rx="2.2" /><rect class="m d3" x="795" y="136" width="8" height="8" rx="2.2" /><rect class="m d4" x="812" y="136" width="8" height="8" rx="2.2" /><rect class="m d5" x="829" y="136" width="8" height="8" rx="2.2" /><rect class="m d6" x="846" y="136" width="8" height="8" rx="2.2" /><rect class="m d9" x="30" y="152" width="8" height="8" rx="2.2" /><rect class="m d10" x="47" y="152" width="8" height="8" rx="2.2" /><rect class="m d11" x="64" y="152" width="8" height="8" rx="2.2" /><rect class="m d12" x="81" y="152" width="8" height="8" rx="2.2" /><rect class="m d13" x="98" y="152" width="8" height="8" rx="2.2" /><rect class="m d14" x="115" y="152" width="8" height="8" rx="2.2" /><rect class="m d15" x="132" y="152" width="8" height="8" rx="2.2" /><rect class="m d16" x="149" y="152" width="8" height="8" rx="2.2" /><rect class="m d17" x="166" y="152" width="8" height="8" rx="2.2" /><rect class="m d18" x="183" y="152" width="8" height="8" rx="2.2" /><rect class="m d19" x="200" y="152" width="8" height="8" rx="2.2" /><rect class="m d20" x="217" y="152" width="8" height="8" rx="2.2" /><rect class="m d21" x="234" y="152" width="8" height="8" rx="2.2" /><rect class="m d22" x="251" y="152" width="8" height="8" rx="2.2" /><rect class="m d23" x="268" y="152" width="8" height="8" rx="2.2" /><rect class="m d0" x="285" y="152" width="8" height="8" rx="2.2" /><rect class="m d1" x="302" y="152" width="8" height="8" rx="2.2" /><rect class="m d2" x="319" y="152" width="8" height="8" rx="2.2" /><rect class="m d3" x="336" y="152" width="8" height="8" rx="2.2" /><rect class="m d4" x="353" y="152" width="8" height="8" rx="2.2" /><rect class="m d5" x="370" y="152" width="8" height="8" rx="2.2" /><rect class="m d6" x="387" y="152" width="8" height="8" rx="2.2" /><rect class="m d7" x="404" y="152" width="8" height="8" rx="2.2" /><rect class="m d8" x="421" y="152" width="8" height="8" rx="2.2" /><rect class="m d9" x="438" y="152" width="8" height="8" rx="2.2" /><rect class="m d10" x="455" y="152" width="8" height="8" rx="2.2" /><rect class="m d11" x="472" y="152" width="8" height="8" rx="2.2" /><rect class="m d12" x="489" y="152" width="8" height="8" rx="2.2" /><rect class="m d13" x="506" y="152" width="8" height="8" rx="2.2" /><rect class="m d14" x="523" y="152" width="8" height="8" rx="2.2" /><rect class="m d15" x="540" y="152" width="8" height="8" rx="2.2" /><rect class="m d16" x="557" y="152" width="8" height="8" rx="2.2" /><rect class="m d17" x="574" y="152" width="8" height="8" rx="2.2" /><rect class="m d18" x="591" y="152" width="8" height="8" rx="2.2" /><rect class="m d19" x="608" y="152" width="8" height="8" rx="2.2" /><rect class="m d20" x="625" y="152" width="8" height="8" rx="2.2" /><rect class="m d21" x="642" y="152" width="8" height="8" rx="2.2" /><rect class="m d22" x="659" y="152" width="8" height="8" rx="2.2" /><rect class="m d23" x="676" y="152" width="8" height="8" rx="2.2" /><rect class="m d0" x="693" y="152" width="8" height="8" rx="2.2" /><rect class="m d1" x="710" y="152" width="8" height="8" rx="2.2" /><rect class="m d2" x="727" y="152" width="8" height="8" rx="2.2" /><rect class="m d3" x="744" y="152" width="8" height="8" rx="2.2" /><rect class="m d4" x="761" y="152" width="8" height="8" rx="2.2" /><rect class="m d5" x="778" y="152" width="8" height="8" rx="2.2" /><rect class="m d6" x="795" y="152" width="8" height="8" rx="2.2" /><rect class="m d7" x="812" y="152" width="8" height="8" rx="2.2" /><rect class="m d8" x="829" y="152" width="8" height="8" rx="2.2" /><rect class="m d9" x="846" y="152" width="8" height="8" rx="2.2" />
</svg>
